PathFileType  4	(X/Y/Z) C:\Users\antoi\Documents\MyRepositories\mobilecap\ResultsAnalysis
DataRate	CameraRate	NumFrames	NumMarkers	Units	OrigDataRate	OrigDataStartFrame	OrigNumFrames
100.0	100.0	4	51	mm	100.0	141	280
Frame#	Time	r_knee			r_shank_antsup			r_ankle			r_calc			r_5meta			r_toe			L_knee			L_shank_antsup			L_ankle			L_calc			L_5meta			L_toe			r_sh2			r_sh3			r_sh4			L_sh2			L_sh3			r_thigh1			r_thigh2			r_thigh3			r_thigh4			r_thigh5			L_thigh1			L_thigh2			L_thigh3			L_thigh4			r.ASIS			r.PSIS			L.ASIS			L.PSIS			C7			R_Shoulder			L_Shoulder			R_Sternum			L_Sternum			R_humerus			R_elbow_med			R_elbow_lat			R_forearm			R_wrist_radius			R_wrist_ulna			L_humerus			L_elbow_med			L_elbow_lat			L_forearm			L_wrist_radius			L_wrist_ulna			R_HJC			L_HJC			R_HJC_reg			L_HJC_reg			
		X1	Y1	Z1	X2	Y2	Z2	X3	Y3	Z3	X4	Y4	Z4	X5	Y5	Z5	X6	Y6	Z6	X7	Y7	Z7	X8	Y8	Z8	X9	Y9	Z9	X10	Y10	Z10	X11	Y11	Z11	X12	Y12	Z12	X13	Y13	Z13	X14	Y14	Z14	X15	Y15	Z15	X16	Y16	Z16	X17	Y17	Z17	X18	Y18	Z18	X19	Y19	Z19	X20	Y20	Z20	X21	Y21	Z21	X22	Y22	Z22	X23	Y23	Z23	X24	Y24	Z24	X25	Y25	Z25	X26	Y26	Z26	X27	Y27	Z27	X28	Y28	Z28	X29	Y29	Z29	X30	Y30	Z30	X31	Y31	Z31	X32	Y32	Z32	X33	Y33	Z33	X34	Y34	Z34	X35	Y35	Z35	X36	Y36	Z36	X37	Y37	Z37	X38	Y38	Z38	X39	Y39	Z39	X40	Y40	Z40	X41	Y41	Z41	X42	Y42	Z42	X43	Y43	Z43	X44	Y44	Z44	X45	Y45	Z45	X46	Y46	Z46	X47	Y47	Z47	X48	Y48	Z48	X49	Y49	Z49	X50	Y50	Z50	X51	Y51	Z51	

141	1.40000000	-260.84045	630.88149	-377.00369	-202.80864	523.68985	-373.38290	-224.96799	179.53969	-379.58174	-275.82661	173.93769	-451.26383	-135.25585	57.02661	-330.28848	-69.52826	77.21283	-377.07422	-308.52110	656.58006	-782.28655	-254.41977	559.36648	-779.96221	-293.18488	201.46827	-777.05651	-351.41399	186.36956	-715.94111	-168.08374	85.10977	-787.54931	-127.27478	124.65460	-735.79474	-171.60544	413.19841	-383.48157	-269.91499	501.61231	-340.01528	-236.94282	390.10782	-335.61451	-340.46888	549.69606	-804.94799	-306.45070	433.17327	-824.47636	-247.66205	881.40244	-397.99793	-211.32359	774.95179	-403.94690	-234.30227	739.22093	-351.79029	-335.95813	843.79639	-336.84250	-290.39306	735.03821	-345.78274	-296.67021	920.29988	-765.84367	-253.50330	790.02834	-758.36039	-393.07549	886.53791	-816.24223	-349.85585	755.34321	-807.43249	-318.23140	1092.08069	-421.37808	-502.84703	1189.10145	-491.92027	-330.26192	1128.63197	-676.76549	-511.68097	1207.08991	-590.20198	-235.08746	1635.01779	-501.58872	-205.88727	1583.97911	-343.36174	-196.14751	1605.60821	-653.41593	-141.37179	1501.54412	-481.30893	-145.13116	1500.70961	-531.94561	-316.76469	1564.29508	-233.72732	-564.25820	1522.21155	-222.47042	-523.85028	1587.96898	-178.27116	-516.33817	1492.05169	-33.25044	-536.50423	1428.77025	65.10201	-571.88176	1449.25735	71.94881	-300.32650	1610.28375	-783.40434	-532.46866	1580.46952	-831.94467	-484.01699	1635.69440	-875.10881	-403.61867	1512.66910	-952.71969	-363.16307	1441.92012	-1039.36053	-393.54395	1460.68067	-1069.48850	-420.86123	1043.36037	-461.47034	-425.45829	1060.66007	-674.10882	-406.39078	1038.14183	-460.46765	-421.40710	1068.71432	-627.49099	
142	1.41000000	-242.66253	607.99092	-372.90225	-184.85163	498.32976	-370.04400	-220.77174	155.83460	-377.93918	-274.67475	153.65341	-449.86584	-132.08349	36.87713	-331.38105	-65.68201	59.90815	-380.13305	-290.06565	631.22570	-784.13276	-235.91646	532.51363	-780.57995	-281.34146	176.47057	-775.61212	-340.22982	161.51875	-714.96288	-157.45332	57.97832	-785.43428	-117.05448	96.12399	-732.10922	-157.25570	387.19793	-381.63386	-251.77180	477.82783	-335.20120	-221.82794	365.45797	-332.05332	-321.60659	525.02256	-807.12690	-290.33157	406.92072	-823.90339	-235.88602	859.28441	-396.95367	-196.10916	753.33723	-402.51916	-217.91726	717.88497	-349.09904	-322.95902	819.16184	-335.11827	-273.77642	711.72280	-343.44834	-285.85340	897.92046	-767.26114	-235.69042	769.78126	-761.16281	-381.03657	859.29282	-816.38637	-331.47127	730.29816	-807.89065	-311.79620	1063.21752	-421.66238	-496.83156	1160.02924	-490.55567	-324.48010	1100.20668	-676.72124	-505.42253	1177.97891	-588.83214	-222.28755	1603.23671	-500.16924	-193.42857	1550.51904	-341.60882	-183.71302	1573.63621	-652.91202	-129.42162	1469.25008	-480.88056	-133.24605	1468.38272	-531.37730	-306.77396	1527.86468	-233.55696	-553.33248	1480.57509	-226.86496	-515.64274	1547.61615	-181.75176	-508.98188	1451.30996	-36.76033	-529.84496	1387.59617	61.10764	-566.26525	1406.65646	67.10092	-290.83952	1577.66364	-781.15061	-524.30457	1546.79235	-822.95649	-477.42713	1602.13748	-868.01559	-396.81208	1478.61604	-944.66859	-356.46684	1407.34136	-1030.85925	-387.61574	1425.19983	-1061.10721	-414.21120	1014.25199	-461.13443	-419.71668	1032.13504	-673.70537	-400.40263	1009.52294	-460.85468	-414.99206	1040.00873	-627.77312	
143	1.42000000	-221.78550	586.24976	-368.34127	-165.87097	471.19304	-368.66486	-229.27205	135.07106	-383.14182	-286.61852	127.04542	-453.90132	-134.47886	30.06877	-332.84571	-69.19708	55.28921	-385.53389	-271.06305	605.58843	-786.22130	-216.21726	505.08946	-781.18850	-271.62208	151.58285	-773.86041	-331.67019	140.05607	-712.62760	-151.23599	33.90128	-783.63555	-109.87383	69.47170	-728.32981	-148.23199	359.11925	-384.75955	-232.88603	454.66823	-332.12724	-211.93806	340.59684	-332.96169	-301.66717	499.66886	-809.63211	-272.86927	380.26055	-824.45133	-223.99495	838.20474	-394.48253	-179.74058	733.50431	-399.40218	-199.94246	698.12392	-344.95604	-309.01240	794.75436	-331.36294	-255.30799	689.34085	-339.69407	-273.14731	874.20657	-770.48005	-217.47185	748.06533	-766.15692	-369.06576	831.51597	-814.79936	-313.31637	704.76582	-809.30209	-307.11202	1034.10210	-422.85672	-491.94977	1130.34424	-488.99957	-318.84678	1070.90268	-676.88384	-499.97269	1147.85919	-586.98458	-209.17033	1570.37280	-498.77166	-181.00428	1515.98305	-339.98132	-171.42948	1540.63997	-652.93033	-117.55978	1435.97143	-480.78965	-121.43935	1435.21195	-531.12180	-296.50950	1489.59728	-233.12804	-541.87521	1437.36921	-231.54614	-507.11073	1505.55046	-184.89173	-501.53225	1408.10325	-40.45685	-523.09362	1343.89941	57.08326	-560.58252	1361.36259	61.86129	-281.37020	1543.15354	-779.92974	-516.23649	1511.37372	-815.05040	-470.43814	1566.17992	-862.30133	-389.60254	1441.76175	-937.23199	-349.04791	1369.80334	-1022.66388	-380.98699	1386.49672	-1053.09917	-408.53406	984.43589	-460.94262	-414.77947	1002.94570	-673.43942	-395.62690	981.05909	-462.02803	-409.23895	1010.79062	-628.42929	
144	1.43000000	-196.54089	566.86153	-364.89002	-148.17208	445.55204	-370.42350	-242.15059	119.24542	-392.33027	-301.85494	97.94616	-461.21844	-139.00932	31.90640	-333.61652	-76.08672	56.63836	-390.48811	-251.40268	579.64654	-788.54969	-195.17627	477.40708	-782.10440	-269.66478	129.74691	-769.77576	-332.14804	120.31973	-708.92105	-150.46409	22.81623	-783.71953	-108.48967	54.58980	-724.48477	-143.44370	332.79916	-391.68424	-215.41753	434.67451	-332.36016	-206.62391	318.80767	-337.58791	-280.48266	474.59199	-811.91973	-255.10549	354.35632	-826.29957	-212.12226	819.19623	-390.99462	-162.27704	717.21051	-395.25556	-179.70062	681.64998	-339.92184	-293.68206	771.92331	-326.17224	-234.36181	669.91359	-333.98691	-260.51351	848.59934	-774.29474	-200.36219	724.46101	-772.32539	-357.12603	802.29718	-813.76560	-295.98596	677.92681	-811.75176	-304.08772	1004.86475	-424.94513	-488.54476	1100.16317	-486.69011	-313.79388	1041.21035	-677.61003	-495.51448	1117.03905	-585.05167	-195.82055	1536.68019	-497.72860	-168.91308	1480.46502	-338.14068	-159.14563	1506.45494	-653.92575	-105.69260	1402.10591	-480.97504	-109.55521	1401.49799	-531.19812	-286.43276	1449.61181	-232.29101	-530.10624	1393.08668	-236.55101	-498.20006	1462.05801	-187.59975	-493.81512	1362.78411	-44.18214	-516.32284	1297.81952	52.57870	-554.78954	1313.23337	55.80841	-271.78027	1506.73520	-779.78634	-507.76820	1473.95924	-808.66572	-463.03576	1528.07606	-857.94531	-381.78850	1402.47375	-930.50723	-340.95514	1329.54252	-1014.91104	-373.57267	1345.02472	-1045.31147	-403.88114	954.09611	-461.04067	-410.96585	973.47173	-673.43064	-392.43552	952.78765	-464.24507	-404.19170	981.23888	-630.01452	
